<?xml version="1.0" encoding="UTF-8"?>
<svg version="1.1" xmlns="http://www.w3.org/2000/svg" width="1500" height="645">
<path d="M0 0 C0.96574951 0.00572021 1.93149902 0.01144043 2.92651367 0.01733398 C17.43819242 0.37851463 27.56833639 6.39295787 37.5 16.75 C41.58502566 21.51043827 44.05056856 26.66042427 46.25 32.5 C46.79914063 33.93085938 46.79914063 33.93085938 47.359375 35.390625 C48.36081384 38.8868764 48.58545865 41.92865037 48.625 45.5625 C48.65335938 46.74972656 48.68171875 47.93695313 48.7109375 49.16015625 C48.16367752 53.12547218 47.03361788 54.68121005 44.25 57.5 C40.53963982 59.97357345 37.55075855 60.27234794 33.25 59.5 C29.03911026 57.00465793 27.55306319 55.40918957 26 50.75 C25.57868156 48.59479414 25.24014881 46.43596725 24.90625 44.265625 C23.65339382 37.27854247 20.89989363 32.26486303 15.171875 27.92578125 C8.4936077 23.85110417 2.23041638 22.77465109 -5.4375 24.1875 C-9.54771489 25.2294251 -12.35056744 27.01261032 -15.75 29.5 C-16.41 29.5 -17.07 29.5 -17.75 29.5 C-18.018125 30.056875 -18.28625 30.61375 -18.5625 31.1875 C-19.75 33.5 -19.75 33.5 -21.3125 36 C-23.47612785 39.76283105 -23.87489878 42.93455603 -23.88028526 47.23668861 C-23.88572178 48.66888471 -23.88572178 48.66888471 -23.89126813 50.13001406 C-23.89019988 51.17609532 -23.88913163 52.22217658 -23.88803101 53.29995728 C-23.89085229 54.41365169 -23.89367357 55.5273461 -23.89658034 56.67478883 C-23.90493812 60.42073209 -23.90626564 64.16664583 -23.90771484 67.91259766 C-23.91238245 70.59330956 -23.91745949 73.27401749 -23.92311096 75.95472717 C-23.93463818 81.73702456 -23.9428822 87.51931904 -23.94923019 93.3016243 C-23.95956925 102.45585289 -23.98013913 111.61004533 -24.00234985 120.76425171 C-24.00983002 123.89903438 -24.0172438 127.03381721 -24.02463722 130.16860008 C-24.02741307 131.34387378 -24.02741307 131.34387378 -24.030245 132.54289038 C-24.05117568 141.46381141 -24.06999887 150.38473646 -24.08789062 159.30566406 C-24.08952881 160.12109953 -24.09116699 160.936535 -24.09285481 161.77668063 C-24.11907882 174.95920748 -24.13775511 188.1417371 -24.15448253 201.32427891 C-24.17195744 214.8778938 -24.20086427 228.43145435 -24.2393719 241.98502576 C-24.26266645 250.33209042 -24.27675692 258.67906639 -24.27869953 267.0261638 C-24.28082332 272.76139182 -24.29387164 278.49653207 -24.31517886 284.23172058 C-24.32710144 287.53117327 -24.33277239 290.83041956 -24.32846642 294.12989616 C-24.29505814 324.61725296 -28.39660429 350.0100264 -50.14453125 373.03515625 C-66.30272598 388.70884739 -86.69484874 396.10797886 -109 396 C-110.02430618 395.99735641 -110.02430618 395.99735641 -111.06930542 395.99465942 C-121.81832556 395.93282105 -130.91606169 395.01675073 -140.75 390.5 C-141.96171875 389.98050781 -143.1734375 389.46101563 -144.421875 388.92578125 C-152.52910594 385.28745103 -159.20784598 380.47415305 -165.75 374.5 C-166.91982422 373.46939453 -166.91982422 373.46939453 -168.11328125 372.41796875 C-182.5906965 358.94072035 -191.80059526 338.73116954 -192.953125 319.02734375 C-192.97632813 317.25037109 -192.97632813 317.25037109 -193 315.4375 C-193.02578125 314.25027344 -193.0515625 313.06304687 -193.078125 311.83984375 C-192.70857927 308.07839613 -192.19886201 306.37193776 -189.75 303.5 C-183.26768242 299.75269093 -176.995824 300.0949347 -169.65454102 300.15942383 C-167.69254005 300.15876671 -167.69254005 300.15876671 -165.69090271 300.15809631 C-162.12105793 300.15723884 -158.55151821 300.17482399 -154.98174405 300.19581819 C-151.24483889 300.21462663 -147.50792603 300.2163387 -143.77098083 300.21989441 C-136.70211975 300.22920268 -129.63339857 300.25379985 -122.56459898 300.28394288 C-114.51382363 300.31752493 -106.46304145 300.33398244 -98.41221344 300.34902918 C-81.85806052 300.38035059 -65.30404814 300.43308722 -48.75 300.5 C-48.74864347 299.95288565 -48.74728694 299.4057713 -48.74588931 298.84207773 C-48.66522159 266.4083908 -48.57425976 233.9747514 -48.46994839 201.54113236 C-48.45742967 197.6459114 -48.44499687 193.75069016 -48.43261719 189.85546875 C-48.43015119 189.08000739 -48.4276852 188.30454604 -48.42514448 187.50558585 C-48.3854317 174.9530077 -48.3526778 162.40042057 -48.32250018 149.84781629 C-48.2913751 136.96560931 -48.25276116 124.08344043 -48.20720994 111.2012763 C-48.17934295 103.25369252 -48.15730216 95.30613658 -48.14273749 87.35851711 C-48.13093915 81.26204838 -48.10871643 75.16566289 -48.08261681 69.06923676 C-48.07354593 66.56991831 -48.06785194 64.07058497 -48.06578636 61.57125092 C-48.06246045 58.15827616 -48.04697353 54.74556299 -48.0284729 51.3326416 C-48.03040763 50.34429778 -48.03234237 49.35595395 -48.03433573 48.33766031 C-47.92225631 34.50151247 -42.83303194 22.78795524 -33.23828125 12.7578125 C-23.41939808 3.84837063 -13.13320248 -0.09060545 0 0 Z M-168.75 323.5 C-165.29916081 340.75419596 -157.31555524 353.46595083 -142.75 363.5 C-128.74157549 372.33793306 -112.19393721 375.99406368 -95.75 372.5 C-85.51547119 369.66623879 -76.86527747 365.45595212 -68.75 358.5 C-68.09644531 357.94570313 -67.44289063 357.39140625 -66.76953125 356.8203125 C-58.6805465 349.3563045 -52.99626959 338.94191784 -49.75 328.5 C-49.75 326.85 -49.75 325.2 -49.75 323.5 C-89.02 323.5 -128.29 323.5 -168.75 323.5 Z " fill="#ffffff" transform="translate(1032.75,124.5)"/>
<path d="M0 0 C1.12216919 -0.00637985 2.24433838 -0.0127597 3.4005127 -0.01933289 C4.6109021 -0.02044571 5.8212915 -0.02155853 7.06835938 -0.02270508 C8.32161011 -0.02603348 9.57486084 -0.02936188 10.86608887 -0.03279114 C13.52241558 -0.0378566 16.17864003 -0.04063203 18.83496094 -0.04003906 C21.5388055 -0.03995812 24.24247951 -0.04684652 26.94628906 -0.06054688 C30.86203119 -0.07899927 34.77757791 -0.08378206 38.69335938 -0.08520508 C39.88755493 -0.09239059 41.08175049 -0.09957611 42.31213379 -0.10697937 C56.27146433 -0.06954849 68.29762574 1.98759465 79.78710938 10.39526367 C88.15345831 19.16001017 90.9342908 28.4707058 90.71289062 40.39135742 C89.89614356 50.58478512 84.82055625 57.33347024 77.41210938 64.14526367 C75.10878854 65.77608208 72.97775743 66.94432203 70.41210938 68.14526367 C72.70953421 69.67688023 74.68681527 70.76652956 77.16210938 71.89526367 C86.84201174 76.7440955 91.86057516 84.0370509 95.41210938 94.14526367 C97.42791992 105.436834 95.97570087 116.16958456 89.97851562 126.05151367 C82.70806615 135.76962071 72.29150876 141.35483605 60.41210938 143.14526367 C55.23144809 143.45422507 50.05690086 143.47593048 44.86914062 143.48120117 C43.37179949 143.4876402 41.87445957 143.49436936 40.37712097 143.50137329 C37.25472087 143.51328453 34.13243095 143.51706 31.01000977 143.51586914 C27.01867721 143.51566514 23.02805018 143.54307719 19.03688526 143.57741356 C15.95099155 143.59968522 12.86526844 143.60370678 9.7793026 143.60264969 C8.3077518 143.60500101 6.83619598 143.6137981 5.36472511 143.62931442 C3.30685679 143.64900216 1.25052211 143.64313006 -0.80737305 143.63110352 C-1.97491623 143.63395355 -3.14245941 143.63680359 -4.34538269 143.63973999 C-9.44237615 142.86245814 -12.40162254 140.75629573 -15.43862915 136.63183594 C-17.1205075 131.52943711 -17.00529328 126.69992783 -16.97607422 121.36010742 C-16.98133118 120.17893341 -16.98658813 118.9977594 -16.99200439 117.78079224 C-17.00292093 114.55344925 -17.00039715 111.32647736 -16.99086714 108.09914017 C-16.98324848 104.71468604 -16.99032226 101.33025593 -16.99502563 97.94580078 C-17.00047679 92.26321999 -16.99330847 86.58075634 -16.97900391 80.89819336 C-16.96267852 74.33726202 -16.96796749 67.77661041 -16.98448312 61.21568584 C-16.99811632 55.57303067 -17.00000873 49.93045949 -16.99216712 44.28779316 C-16.98750063 40.92186717 -16.98683736 37.55607248 -16.99677658 34.19015503 C-17.0043958 30.43671767 -16.99277917 26.68381729 -16.97607422 22.93041992 C-16.98214691 21.82062775 -16.9882196 20.71083557 -16.99447632 19.56741333 C-16.93801119 12.71839446 -16.16927289 8.22626832 -11.65039062 2.83276367 C-8.06906472 -0.09741207 -4.51010352 0.01744832 0 0 Z M11.41210938 20.14526367 C11.41210938 33.67526367 11.41210938 47.20526367 11.41210938 61.14526367 C16.01148438 61.18651367 20.61085938 61.22776367 25.34960938 61.27026367 C26.78167725 61.28847168 28.21374512 61.30667969 29.68920898 61.32543945 C42.5089055 61.59929713 42.5089055 61.59929713 53.78710938 56.27026367 C54.72683594 55.53163086 54.72683594 55.53163086 55.68554688 54.77807617 C59.31076023 51.34970698 61.30614537 48.02993805 62.41210938 43.14526367 C62.42208355 37.58964955 61.50727199 32.84137247 58.41210938 28.14526367 C48.88377089 18.82866604 36.33145195 19.9936696 23.84960938 20.08276367 C19.74523437 20.10338867 15.64085937 20.12401367 11.41210938 20.14526367 Z M11.41210938 79.14526367 C11.41210938 93.66526367 11.41210938 108.18526367 11.41210938 123.14526367 C20.04367188 123.23807617 20.04367188 123.23807617 28.84960938 123.33276367 C30.64712646 123.36007568 32.44464355 123.3873877 34.29663086 123.41552734 C44.76896332 123.50843931 53.92422894 123.25139613 62.41210938 116.14526367 C66.46956368 111.44715869 66.80840245 107.16966856 66.91210938 101.08276367 C66.93063965 100.39794922 66.94916992 99.71313477 66.96826172 99.00756836 C66.90572058 93.92824709 65.54870525 91.07181703 62.41210938 87.14526367 C55.12624957 80.06178886 45.59429304 79.00853494 35.82617188 79.04760742 C34.54178223 79.05010498 33.25739258 79.05260254 31.93408203 79.05517578 C29.51008057 79.06883179 29.51008057 79.06883179 27.03710938 79.08276367 C19.30273438 79.11370117 19.30273438 79.11370117 11.41210938 79.14526367 Z " fill="#ffffff" transform="translate(157.587890625,243.854736328125)"/>
<path d="M0 0 C11.00563678 7.79986643 16.72502774 20.24702331 19.45703125 33.15234375 C22.09063078 51.81490158 19.70712906 68.79270421 8.375 84.2109375 C4.31284286 89.26982764 -0.12063033 92.32000464 -6 95 C-6.70640625 95.36609375 -7.4128125 95.7321875 -8.140625 96.109375 C-17.38864837 98.98990687 -31.65417895 98.59963445 -40.43212891 94.51904297 C-43.41214545 92.75619233 -45.75874947 90.68747244 -48.30078125 88.33984375 C-49.18548096 87.52765381 -50.07018066 86.71546387 -50.98168945 85.87866211 C-51.64773193 85.25870361 -52.31377441 84.63874512 -53 84 C-53.01458252 85.18029785 -53.02916504 86.3605957 -53.04418945 87.57666016 C-53.10232697 91.97149375 -53.17955881 96.36582326 -53.26245117 100.76025391 C-53.29562793 102.65925899 -53.32368231 104.55836096 -53.34643555 106.45751953 C-53.38011518 109.19345235 -53.4324372 111.92850311 -53.48828125 114.6640625 C-53.49786613 115.93003769 -53.49786613 115.93003769 -53.50764465 117.22158813 C-53.65084838 123.01203133 -54.59455094 127.41636953 -58.6875 131.8125 C-63.3929538 134.22881411 -67.67680962 134.22053173 -72.75 133.375 C-76.7290531 131.69155446 -77.82547447 130.74855243 -80 127 C-80.60465545 123.05151178 -80.55643649 119.1328739 -80.53344727 115.14477539 C-80.54206284 113.94424026 -80.55067841 112.74370514 -80.55955505 111.50679016 C-80.57834829 108.22146007 -80.57911622 104.93676654 -80.57023358 101.65141225 C-80.56511619 98.90540609 -80.57242236 96.15948998 -80.57970566 93.4134931 C-80.59669598 86.93354067 -80.59314804 80.45382378 -80.57641602 73.97387695 C-80.55949644 67.29637261 -80.57532812 60.61952207 -80.6076389 53.94208914 C-80.63435939 48.20176558 -80.64160422 42.46164523 -80.63312382 36.72126573 C-80.62820148 33.29597903 -80.6303717 29.87108559 -80.65091133 26.44584846 C-80.66831879 22.6249532 -80.65384289 18.80545792 -80.63110352 14.98461914 C-80.64279572 13.85455444 -80.65448792 12.72448975 -80.66653442 11.56018066 C-80.5629367 3.00988519 -80.5629367 3.00988519 -77.58555603 -0.6865387 C-73.49277576 -4.34860932 -70.81143449 -4.28024708 -65.4765625 -4.21875 C-61.27783359 -3.84788435 -59.06237981 -2.18042201 -56.3125 0.875 C-54.89379679 3.17194805 -53.97436448 5.4873835 -53 8 C-52.42894531 7.39671875 -51.85789062 6.7934375 -51.26953125 6.171875 C-44.72452228 -0.27948519 -38.89826112 -2.97437958 -30 -5 C-28.94619141 -5.28617187 -28.94619141 -5.28617187 -27.87109375 -5.578125 C-18.60077463 -7.66830134 -7.95848444 -4.88361545 0 0 Z M-48.8125 20.75 C-53.90665826 28.3184637 -54.49969257 35.93057725 -54.4375 44.875 C-54.45748047 45.88691406 -54.47746094 46.89882813 -54.49804688 47.94140625 C-54.49204862 57.3106786 -52.43143172 66.61381101 -45.75 73.5625 C-40.02869577 78.26214276 -33.96106107 79.70217033 -26.640625 79.375 C-20.57583438 78.51372796 -16.57416438 76.08091227 -12.6875 71.375 C-7.48452846 63.52932446 -6.50864965 55.23046071 -6.625 46 C-6.61339844 45.07960938 -6.60179687 44.15921875 -6.58984375 43.2109375 C-6.63181625 33.27744586 -8.78843898 24.19584956 -16 17 C-20.52931179 13.33341426 -24.15057241 12.31424839 -29.875 12.4375 C-30.58245361 12.44700684 -31.28990723 12.45651367 -32.01879883 12.46630859 C-39.85503735 12.77885482 -43.4284993 15.48564376 -48.8125 20.75 Z " fill="#ffffff" transform="translate(1348,291)"/>
<path d="M0 0 C11.40820579 8.92051334 16.64373693 22.30900144 18.67578125 36.20703125 C20.26428466 50.12678222 16.13845574 63.37832546 8.0859375 74.69921875 C7.66828125 75.29476562 7.250625 75.8903125 6.8203125 76.50390625 C-0.02554586 85.3563093 -10.25563575 90.09241008 -20.9140625 92.69921875 C-25.43242658 93.22087653 -29.86990507 93.26125503 -34.4140625 93.19921875 C-35.54714844 93.2146875 -36.68023438 93.23015625 -37.84765625 93.24609375 C-51.04769401 93.18561248 -61.83164907 89.12280302 -71.6015625 80.26171875 C-72.3646875 79.41609375 -73.1278125 78.57046875 -73.9140625 77.69921875 C-74.39488281 77.22226562 -74.87570312 76.7453125 -75.37109375 76.25390625 C-83.79124043 67.42873986 -87.31324318 54.52552174 -87.2890625 42.57421875 C-87.28745117 41.74108154 -87.28583984 40.90794434 -87.28417969 40.04956055 C-87.14101758 32.76583749 -85.69765998 26.44968512 -82.9140625 19.69921875 C-82.63691406 18.96703125 -82.35976562 18.23484375 -82.07421875 17.48046875 C-77.61617337 7.12629883 -67.81484999 -1.75624988 -57.6328125 -6.32421875 C-55.4085625 -7.11523723 -53.20657492 -7.73951097 -50.9140625 -8.30078125 C-49.76164062 -8.60628906 -49.76164062 -8.60628906 -48.5859375 -8.91796875 C-32.0304721 -12.81651383 -14.08969936 -9.57524467 0 0 Z M-51.6171875 15.53125 C-59.52092862 25.2574557 -60.68647042 36.49241505 -59.9140625 48.69921875 C-58.38542515 58.19700229 -55.4050415 65.37350315 -47.9140625 71.69921875 C-41.84480731 75.39616586 -35.97365577 76.82647639 -28.9140625 75.69921875 C-21.12768891 73.15367354 -15.90501289 67.74989777 -11.9140625 60.69921875 C-7.09325118 50.10991524 -7.33519457 36.0289126 -10.8671875 25.06640625 C-14.04060649 17.89069018 -19.5374506 11.66236624 -26.9140625 8.69921875 C-36.89183115 7.60718186 -44.55017193 7.92934564 -51.6171875 15.53125 Z " fill="#ffffff" transform="translate(1114.9140625,295.30078125)"/>
<path d="M0 0 C11.62091825 8.78325217 17.6613764 20.22427185 20.015625 34.5234375 C20.86576855 41.29624782 20.86576855 41.29624782 20.015625 44.5234375 C17.42046538 47.72562656 15.94158411 49.34851256 11.83280945 50.12471008 C10.63589981 50.11360703 9.43899017 50.10250397 8.20581055 50.09106445 C7.54183762 50.09179459 6.87786469 50.09252472 6.19377136 50.09327698 C4.01244648 50.08981036 1.83329259 50.05100063 -0.34765625 50.01171875 C-1.86507501 50.00238715 -3.38250888 49.99527267 -4.89994812 49.99028015 C-8.88369725 49.97123716 -12.86652726 49.92216133 -16.84991455 49.86676025 C-20.91869677 49.81550848 -24.98762828 49.79275356 -29.05664062 49.76757812 C-37.03297273 49.71403848 -45.00855936 49.62876017 -52.984375 49.5234375 C-52.55313227 51.43201243 -52.10924715 53.33773327 -51.66015625 55.2421875 C-51.41434814 56.30373047 -51.16854004 57.36527344 -50.9152832 58.45898438 C-49.14079776 64.30040618 -45.74245165 68.07111331 -41.109375 71.8984375 C-28.9239693 78.23484846 -16.48447629 75.41002362 -3.984375 71.5234375 C-1.4561653 70.43502583 -1.4561653 70.43502583 0.640625 69.2734375 C4.21288576 67.42115414 6.06786558 66.80566306 10.015625 67.5234375 C12.91982712 69.56422818 13.85068528 71.0492358 15.015625 74.3984375 C15.015625 78.71267553 13.81067326 80.25118588 11.015625 83.5234375 C0.08967045 93.41585581 -12.40882744 95.88193341 -26.734375 95.8984375 C-27.8378125 95.92292969 -28.94125 95.94742188 -30.078125 95.97265625 C-41.99001347 96.01459952 -51.53462903 92.70524443 -60.984375 85.5234375 C-62.015625 84.8015625 -63.046875 84.0796875 -64.109375 83.3359375 C-74.31454485 74.46310927 -78.89862766 59.56885625 -79.984375 46.5234375 C-80.30888777 31.79416345 -74.66528838 17.82503075 -64.6640625 7.015625 C-47.58276199 -9.20893316 -20.36471379 -12.82510601 0 0 Z M-45.6875 18.35546875 C-49.34569586 22.85718065 -52.984375 28.53370679 -52.984375 34.5234375 C-36.484375 34.5234375 -19.984375 34.5234375 -2.984375 34.5234375 C-5.85251967 22.76429584 -5.85251967 22.76429584 -14.109375 14.5234375 C-24.53198175 8.68353333 -37.52938125 9.57987771 -45.6875 18.35546875 Z " fill="#ffffff" transform="translate(350.984375,292.4765625)"/>
<path d="M0 0 C6.84082893 5.77615609 9.82717713 11.96200015 12.62109375 20.34375 C12.73554288 22.47356363 12.79043126 24.60674532 12.81396484 26.73950195 C12.82623108 27.70593628 12.82623108 27.70593628 12.83874512 28.69189453 C12.86353636 30.82193078 12.88009882 32.95190066 12.89453125 35.08203125 C12.89985493 35.81097281 12.9051786 36.53991436 12.9106636 37.29094505 C12.93736789 41.14927493 12.95675146 45.00757275 12.97119141 48.8659668 C12.98453013 52.05440971 13.01238381 55.24221255 13.05322266 58.43041992 C13.10259765 62.28540841 13.12731791 66.13981647 13.13441849 69.99510765 C13.14112098 71.46111579 13.15631723 72.92711148 13.1803093 74.39293861 C13.37947784 87.29754414 13.37947784 87.29754414 10.21337891 91.22729492 C5.52340435 95.05639545 1.51037436 94.8260218 -4.37890625 94.34375 C-7.37890625 93.34375 -7.37890625 93.34375 -9.37890625 91.34375 C-10.37794556 88.6637874 -10.86703444 86.18231185 -11.37890625 83.34375 C-12.32765625 84.230625 -13.27640625 85.1175 -14.25390625 86.03125 C-22.67887126 93.28703619 -31.17915407 95.5498468 -42.00390625 95.65625 C-43.44443359 95.69975586 -43.44443359 95.69975586 -44.9140625 95.74414062 C-54.04406325 95.82466302 -61.40630744 92.95896527 -68.515625 87.203125 C-74.71498652 81.01676005 -76.96196341 74.3662629 -77.06640625 65.78125 C-76.85545191 56.2053924 -74.14774544 49.73882188 -67.25390625 42.96875 C-62.41524989 38.96211636 -57.34107896 37.10720953 -51.37890625 35.34375 C-49.83203125 34.7559375 -49.83203125 34.7559375 -48.25390625 34.15625 C-40.14950141 31.86587472 -31.6612767 32.21865143 -23.31640625 32.28125 C-22.16462891 32.28576172 -21.01285156 32.29027344 -19.82617188 32.29492188 C-17.01036107 32.30660574 -14.19466227 32.32298719 -11.37890625 32.34375 C-11.6836187 30.57224467 -11.99313165 28.80156459 -12.3046875 27.03125 C-12.47653564 26.04511719 -12.64838379 25.05898438 -12.82543945 24.04296875 C-13.48399582 20.83123554 -14.1620156 18.78997416 -16.37890625 16.34375 C-23.70889429 11.51262152 -33.44107068 12.50846596 -41.7734375 13.91796875 C-46.07916154 14.94159371 -50.12620592 16.13808093 -54.12890625 18.03125 C-58.37468056 19.74588963 -60.82425334 19.94108153 -65.37890625 19.34375 C-68.31481245 16.84822973 -69.20479237 15.23366536 -69.94140625 11.46875 C-69.15767528 7.11468905 -67.55498249 4.32509852 -64.37890625 1.34375 C-47.02261513 -10.54183816 -17.47725777 -12.16807437 0 0 Z M-48.31640625 54.84375 C-51.54488121 58.75705298 -52.83792076 61.05242479 -52.6953125 66.21484375 C-51.99664506 70.91575427 -49.71845233 74.31332994 -45.94140625 77.21875 C-39.4398771 80.07307987 -33.07738617 80.15111714 -26.37890625 77.84375 C-20.97271347 75.47391207 -17.36810014 72.45859288 -14.37890625 67.34375 C-11.89963805 60.75598022 -10.97501945 54.3444546 -11.37890625 47.34375 C-30.99235985 46.82001884 -30.99235985 46.82001884 -48.31640625 54.84375 Z " fill="#ffffff" transform="translate(459.37890625,292.65625)"/>
<path d="M0 0 C3.36031555 1.66985006 5.46107677 3.91108373 7.14028931 7.30400085 C8.10450422 10.32771873 8.25149751 12.77706217 8.25537109 15.94848633 C8.26233002 17.12353226 8.26928894 18.29857819 8.27645874 19.50923157 C8.27546173 20.77075546 8.27446472 22.03227936 8.2734375 23.33203125 C8.28853458 25.32733098 8.30365496 27.32263085 8.32012367 29.31791973 C8.35780359 34.22401947 8.37503503 39.1301441 8.38085938 44.03637695 C8.38491882 46.79247134 8.39955749 49.54814532 8.42520142 52.30412292 C8.44854093 54.89396203 8.45605671 57.48400548 8.44564819 60.07392883 C8.5251463 67.1736773 9.07495919 72.00762891 13 78 C17.74254011 81.77467478 21.64035059 83.3712057 27.74609375 83.28125 C34.38765392 82.45249379 39.77086587 79.09983822 44 74 C47.35427159 69.08838802 48.12105693 65.29747985 48.1418457 59.40869141 C48.14888016 58.28717682 48.15591461 57.16566223 48.16316223 56.01016235 C48.16940865 54.19915543 48.16940865 54.19915543 48.17578125 52.3515625 C48.19897528 49.79426256 48.22309245 47.23697086 48.24804688 44.6796875 C48.28443029 40.64843704 48.31421031 36.61734059 48.32592773 32.5859375 C48.34139464 28.6949389 48.38159336 24.80482704 48.42578125 20.9140625 C48.42387283 19.71077301 48.42196442 18.50748352 48.41999817 17.26773071 C48.51268239 10.92903579 48.59517227 6.74519851 53 2 C57.46918733 -0.97945822 61.76072132 -0.48398029 67 0 C70.58036525 1.34263697 71.61037534 2.36569533 73.5997467 5.60437012 C75.23348316 9.56619926 75.42949674 12.99358209 75.40405273 17.20507812 C75.41091599 18.00586288 75.41777924 18.80664764 75.42485046 19.63169861 C75.44307456 22.26506539 75.43928779 24.897834 75.43359375 27.53125 C75.43815724 29.36918328 75.44346331 31.20711485 75.44947815 33.04504395 C75.4584003 36.89159084 75.45599584 40.73793 75.44604492 44.58447266 C75.43454864 49.50742406 75.45478128 54.42965888 75.48396206 59.35251617 C75.50232879 63.14614393 75.50203079 66.93960004 75.49632454 70.73326111 C75.49617142 72.54810085 75.50220769 74.3629523 75.51461601 76.17774963 C75.5295357 78.71726164 75.51884308 81.25545057 75.50170898 83.79492188 C75.51137695 84.54003525 75.52104492 85.28514862 75.53100586 86.05284119 C75.45902937 91.16118185 74.20295597 94.05601365 71 98 C66.59613379 101.10068131 61.14759211 100.71515028 56 100 C52.70439951 98.5439556 50.63518321 96.49965207 49.19921875 93.109375 C48.625 91.1875 48.625 91.1875 48 88 C47.61070312 88.44730469 47.22140625 88.89460938 46.8203125 89.35546875 C41.50184585 95.102844 34.05848937 100.51997563 25.96630859 101.16113281 C23.43573367 101.20697849 20.90595609 101.2353065 18.375 101.25 C17.51003906 101.270625 16.64507813 101.29125 15.75390625 101.3125 C7.06018002 101.36463629 -0.31632534 99.35772821 -7.1484375 93.859375 C-15.86005363 85.111001 -18.32913978 74.11109532 -18.4168396 62.19830322 C-18.41147121 60.82490728 -18.40531859 59.4515142 -18.3984375 58.078125 C-18.40046246 56.64564873 -18.4033774 55.21317346 -18.40713501 53.78070068 C-18.41153286 50.79526849 -18.40520627 47.81010746 -18.39111328 44.82470703 C-18.37396012 41.00598392 -18.38391674 37.18789066 -18.40183067 33.36919022 C-18.41268463 30.41800204 -18.40921592 27.46696268 -18.4014473 24.51576996 C-18.39945295 23.10761184 -18.40187756 21.69944 -18.40888596 20.29129791 C-18.41653308 18.32473522 -18.40280429 16.35812477 -18.38818359 14.39160156 C-18.38579681 13.27513245 -18.38341003 12.15866333 -18.38095093 11.00836182 C-17.83252623 6.67746302 -16.18891062 4.04480024 -12.9375 1.1875 C-8.58660014 -0.57137441 -4.62227844 -0.79133407 0 0 Z " fill="#ffffff" transform="translate(514,287)"/>
<path d="M0 0 C3.17852316 1.64448689 5.37801764 3.75603527 7 7 C7.10930341 8.76978899 7.15639226 10.54357263 7.17358398 12.31665039 C7.18707382 13.42863297 7.20056366 14.54061554 7.21446228 15.68629456 C7.22490067 16.89454391 7.23533905 18.10279327 7.24609375 19.34765625 C7.27904977 21.89778966 7.3122611 24.44791979 7.34570312 26.99804688 C7.39403989 31.02461526 7.43777473 35.05121186 7.47680664 39.07788086 C7.51670143 42.95961973 7.56822398 46.84107538 7.62109375 50.72265625 C7.6295079 51.91673599 7.63792206 53.11081573 7.64659119 54.34107971 C7.82238767 67.62934049 7.82238767 67.62934049 14 79 C18.27691438 82.05086559 22.57278036 83.69208045 27.921875 83.38671875 C34.50228505 82.16216876 39.72584889 79.1541234 44 74 C47.35556542 69.08649349 48.11901215 65.28334257 48.15771484 59.39282227 C48.17310806 57.70570885 48.17310806 57.70570885 48.18881226 55.98451233 C48.19611359 54.77403732 48.20341492 53.56356232 48.2109375 52.31640625 C48.23899852 49.75455082 48.26766293 47.19270194 48.296875 44.63085938 C48.33932376 40.59077364 48.37613098 36.55072959 48.40136719 32.51049805 C48.4263665 28.61224787 48.47479998 24.71443478 48.5234375 20.81640625 C48.52669037 19.60795547 48.52994324 18.3995047 48.53329468 17.1544342 C48.55814438 15.46259254 48.55814438 15.46259254 48.58349609 13.73657227 C48.59158295 12.74714127 48.5996698 11.75771027 48.60800171 10.73829651 C49.20237432 6.58631806 50.94111334 3.93053676 54.0625 1.1875 C59.29055287 -0.92596818 64.59516636 -0.7675001 69.9375 0.9375 C76.06155028 7.06155028 75.38580763 16.33621924 75.39118958 24.40187073 C75.38250099 26.00880267 75.37318295 27.61573132 75.36328125 29.22265625 C75.36276164 30.89456685 75.36328322 32.56647806 75.36479187 34.23838806 C75.36470254 37.72908746 75.35435299 41.21955403 75.33618164 44.71020508 C75.31347833 49.16748571 75.3129579 53.62442734 75.31969929 58.08174992 C75.32305239 61.52972893 75.31638427 64.97763172 75.30657005 68.42559624 C75.30274221 70.06851235 75.30155973 71.71143697 75.3031559 73.35435677 C75.30352988 75.65575233 75.2908151 77.9567251 75.2746582 80.25805664 C75.26774712 82.21588829 75.26774712 82.21588829 75.26069641 84.21327209 C74.88826813 89.62295369 74.47638327 94.48576075 70.5625 98.5 C65.60528933 100.5872466 61.29987261 100.8977496 56 100 C52.70959252 98.52746121 50.63736058 96.50479278 49.19921875 93.109375 C48.625 91.1875 48.625 91.1875 48 88 C47.61070313 88.44730469 47.22140625 88.89460938 46.8203125 89.35546875 C41.45884992 95.14930735 34.02937788 100.49412117 25.89038086 101.17700195 C13.71769548 101.48453532 4.19937193 101.70728165 -6.25 94.875 C-16.39888411 84.26480298 -18.47703583 72.87879452 -18.46875 58.7734375 C-18.47586222 57.29708572 -18.48356275 55.82073668 -18.49182129 54.34439087 C-18.50521058 51.26304414 -18.50685859 48.18195347 -18.50097656 45.10058594 C-18.49506525 41.16171499 -18.52575493 37.22407019 -18.56609344 33.28543663 C-18.59199189 30.24154091 -18.59484639 27.19794044 -18.59120178 24.15394974 C-18.59288899 22.70193 -18.6024931 21.24989604 -18.62034607 19.79798508 C-18.7597839 7.06492894 -18.7597839 7.06492894 -15.58789062 3.12744141 C-10.76457794 -0.83768564 -6.08734027 -0.78878212 0 0 Z " fill="#ffffff" transform="translate(1170,287)"/>
<path d="M0 0 C3.16771452 2.85094307 4.36181224 4.70937655 4.74482727 8.97952271 C4.74306992 10.02413666 4.74131256 11.06875061 4.73950195 12.14501953 C4.74323318 13.33370636 4.74696442 14.52239319 4.75080872 15.74710083 C4.74667465 17.02938568 4.74254059 18.31167053 4.73828125 19.6328125 C4.74430599 20.97078226 4.75191511 22.30874574 4.7610321 23.646698 C4.79802644 29.31559723 4.8167693 34.98430357 4.80541992 40.65332031 C4.79952111 44.12716356 4.81806154 47.60020046 4.85130882 51.07387924 C4.86299333 53.02230136 4.84800885 54.97082572 4.83235168 56.91921997 C4.91650801 64.62541982 5.82206239 70.91976675 10.5 77.25 C14.87153282 80.74358601 19.56649193 81.97849781 25.1328125 81.69921875 C30.89880759 80.60501176 36.41854118 77.82068246 40.4375 73.5 C45.55357391 65.43830777 45.91104937 57.7027461 45.8359375 48.33203125 C45.84844092 45.8365859 45.86147762 43.34114317 45.875 40.84570312 C45.87893969 36.94171954 45.87490862 33.03799273 45.86035156 29.1340332 C45.85179147 25.34547768 45.8734351 21.55799243 45.8984375 17.76953125 C45.88509369 16.60380081 45.87174988 15.43807037 45.85800171 14.23701477 C45.94033835 5.21257768 45.94033835 5.21257768 48.91259766 1.5300293 C53.01738184 -2.08712295 55.70407476 -2.0300683 61.0234375 -1.96875 C65.10612695 -1.6081339 67.27588359 0.0328531 70.10266113 2.84353638 C72.10935605 6.29941843 71.93452218 9.61567196 71.91992188 13.50341797 C71.92839142 14.33317139 71.93686096 15.1629248 71.94558716 16.01782227 C71.96897645 18.7594335 71.96997878 21.50048406 71.96875 24.2421875 C71.97585101 26.15024032 71.98354992 28.058291 71.99182129 29.96633911 C72.00527096 33.96606378 72.00683294 37.96559107 72.00097656 41.96533203 C71.99508356 47.08574478 72.02565317 52.20520834 72.06609344 57.32543755 C72.09197148 61.26662276 72.0948477 65.20757958 72.09120178 69.14883804 C72.0928933 71.03626005 72.10253884 72.92369258 72.12034607 74.81103134 C72.14253565 77.4539267 72.13283448 80.09490296 72.11523438 82.73779297 C72.12849762 83.51410065 72.14176086 84.29040833 72.15542603 85.09024048 C72.06759981 90.7794541 70.56988256 93.268328 66.5 97.25 C62.57979559 99.21010221 57.78388424 98.6028633 53.5 98.25 C49.75969815 96.64701349 48.76841535 95.65262302 46.5 92.25 C46.10986284 90.2603005 45.76797351 88.25980131 45.5 86.25 C44.943125 86.78109375 44.38625 87.3121875 43.8125 87.859375 C32.1020525 98.6994514 22.36976691 100.01215704 6.83691406 99.42480469 C-1.44835527 98.80505408 -8.15238178 94.44681082 -13.5 88.25 C-21.07070498 77.28088967 -21.81254548 66.41515217 -21.8359375 53.39453125 C-21.8459227 51.44301399 -21.8459227 51.44301399 -21.85610962 49.45207214 C-21.86799663 46.71646801 -21.8717988 43.98098942 -21.87060547 41.24536133 C-21.8704014 37.75520289 -21.89783135 34.26585059 -21.93214989 30.77588367 C-21.95981456 27.41958801 -21.95856799 24.06343931 -21.9609375 20.70703125 C-21.97530853 19.46210403 -21.98967957 18.21717682 -22.00448608 16.93452454 C-21.96884626 10.166895 -21.65545661 5.70512754 -17.5 0.25 C-12.39849693 -3.45832151 -5.35001545 -2.67500773 0 0 Z " fill="#ffffff" transform="translate(827.5,288.75)"/>
<path d="M0 0 C0.71671875 -0.00773438 1.4334375 -0.01546875 2.171875 -0.0234375 C9.17082876 0.00182948 15.82794674 1.03396127 21.625 5.25 C23.24811438 8.49622876 23.16160044 11.74197462 22.625 15.25 C21 18.25 21 18.25 17.625 20.25 C14.04123457 20.50231761 10.58618681 20.4352833 7 20.23046875 C3.54162365 20.2504825 1.57656926 20.46324647 -1.375 22.25 C-3.95261937 26.44851499 -3.80698968 31.26538944 -4 36.0625 C-4.03867187 36.85076172 -4.07734375 37.63902344 -4.1171875 38.45117188 C-4.21088844 40.3837538 -4.29400779 42.31684376 -4.375 44.25 C-3.19421875 44.27578125 -2.0134375 44.3015625 -0.796875 44.328125 C0.76045323 44.38441397 2.31774347 44.44176114 3.875 44.5 C4.65230469 44.51417969 5.42960938 44.52835937 6.23046875 44.54296875 C9.94047761 44.70151614 12.04284488 44.84077121 15.13671875 47.015625 C16.78701167 49.49323011 17.19255875 50.79569106 17.1875 53.75 C17.20941406 54.5028125 17.23132813 55.255625 17.25390625 56.03125 C16.28492135 59.44978057 14.61461757 60.38666965 11.625 62.25 C8.66749004 62.72436544 5.79793995 62.63012815 2.8125 62.5 C2.02423828 62.48195313 1.23597656 62.46390625 0.42382812 62.4453125 C-1.50964261 62.39844048 -3.44248285 62.3267041 -5.375 62.25 C-5.35168358 63.67700729 -5.35168358 63.67700729 -5.32789612 65.13284302 C-5.18586368 74.10761061 -5.08099951 83.0821496 -5.0123148 92.05778694 C-4.97581501 96.67213989 -4.92632638 101.28558412 -4.84692383 105.89941406 C-4.77074447 110.35394055 -4.72898522 114.80759431 -4.7108593 119.26272202 C-4.69794625 120.96046563 -4.6727284 122.65816259 -4.6348896 124.3555336 C-4.35096329 137.62210773 -4.35096329 137.62210773 -6.87626648 141.63653564 C-9.62775468 144.09863029 -11.71917317 145.10406767 -15.32421875 145.90625 C-16.22785156 145.8546875 -17.13148438 145.803125 -18.0625 145.75 C-18.97386719 145.7190625 -19.88523437 145.688125 -20.82421875 145.65625 C-24.13935317 145.12826534 -26.50380003 144.35450325 -28.62689209 141.66285706 C-32.32500718 134.02038336 -31.88146927 126.12474133 -31.765625 117.83984375 C-31.75815187 116.26087668 -31.75246401 114.68190025 -31.74847412 113.10292053 C-31.73330187 108.97471896 -31.69409455 104.84709265 -31.6496582 100.71911621 C-31.60852234 96.49576598 -31.59042426 92.27232154 -31.5703125 88.04882812 C-31.52759046 79.78228997 -31.45944343 71.51621682 -31.375 63.25 C-32.27500732 63.20246582 -33.17501465 63.15493164 -34.10229492 63.10595703 C-35.27896729 63.03231934 -36.45563965 62.95868164 -37.66796875 62.8828125 C-38.83610107 62.81465332 -40.0042334 62.74649414 -41.20776367 62.67626953 C-44.375 62.25 -44.375 62.25 -47.6875 60.125 C-49.85660037 56.42949567 -50.12834938 54.46875652 -49.375 50.25 C-47.6875 47.375 -47.6875 47.375 -44.375 45.25 C-40.04260007 44.54192011 -35.76052667 44.32063074 -31.375 44.25 C-31.41625 43.05375 -31.4575 41.8575 -31.5 40.625 C-31.46401271 29.19903516 -29.71866446 18.13995052 -23.5625 8.375 C-16.94296234 1.94459198 -9.02310845 -0.09633212 0 0 Z " fill="#ffffff" transform="translate(774.375,241.75)"/>
<path d="M0 0 C3.28411937 2.65917476 4.84502012 4.09311775 5.56762695 8.3215332 C5.54144287 9.55218506 5.51525879 10.78283691 5.48828125 12.05078125 C5.48120651 12.70958786 5.47413177 13.36839447 5.46684265 14.04716492 C5.43900979 16.13680034 5.37630819 18.22368476 5.3125 20.3125 C5.28740205 21.73498714 5.26459148 23.15751659 5.24414062 24.58007812 C5.18922446 28.05426861 5.10303685 31.5268655 5 35 C6.25296875 34.96519531 7.5059375 34.93039062 8.796875 34.89453125 C10.44790324 34.86638872 12.09894601 34.83908906 13.75 34.8125 C14.575 34.78736328 15.4 34.76222656 16.25 34.73632812 C22.35872096 34.66243231 22.35872096 34.66243231 25.515625 36.32421875 C27.75573111 38.85318064 28.00604328 41.05438949 28.375 44.375 C28 48 28 48 25.6875 50.875 C21.38965107 54.27329915 18.14930628 54.11146153 12.8125 54.0625 C11.54019531 54.05347656 10.26789062 54.04445313 8.95703125 54.03515625 C7.49330078 54.01775391 7.49330078 54.01775391 6 54 C5.94913257 61.40149997 5.91419612 68.80295454 5.89013672 76.20458984 C5.88010263 78.7205575 5.86647232 81.23651357 5.84912109 83.75244141 C5.82475903 87.37665678 5.81349069 91.00071744 5.8046875 94.625 C5.79436493 95.74302002 5.78404236 96.86104004 5.77340698 98.01293945 C5.77254823 104.0415847 6.23272953 109.22732414 8 115 C8.58491211 115.00410889 9.16982422 115.00821777 9.77246094 115.01245117 C12.43265566 115.04542661 15.09057155 115.11606907 17.75 115.1875 C19.13058594 115.19620117 19.13058594 115.19620117 20.5390625 115.20507812 C27.36149675 115.42754881 27.36149675 115.42754881 30.60546875 118.3359375 C32.47842353 121.91396317 32.63011734 124.00925684 32 128 C29.15254881 132.31185466 26.87367658 134.43616952 22 136 C18.23643629 136.40505206 14.47078539 136.32446485 10.6875 136.3125 C9.68009766 136.32861328 8.67269531 136.34472656 7.63476562 136.36132812 C0.52788655 136.36595801 -5.5260547 135.88368203 -11.20703125 131.16796875 C-20.50942786 119.69274957 -21.25809128 107.80782719 -21.4140625 93.35546875 C-21.43342865 92.21966873 -21.4527948 91.08386871 -21.4727478 89.91365051 C-21.53182347 86.33833986 -21.57863712 82.76299573 -21.625 79.1875 C-21.66324624 76.74152356 -21.70230166 74.29555963 -21.7421875 71.84960938 C-21.83746433 65.89985187 -21.92271518 59.95001699 -22 54 C-23.87751953 54.03480469 -23.87751953 54.03480469 -25.79296875 54.0703125 C-29.92772765 54.14696097 -32.53643409 53.41644133 -36 51 C-38.64260627 47.36641638 -39.11940078 45.78273844 -38.4375 41.3125 C-36.90067469 37.77111994 -36.30162427 36.82271489 -33 35 C-29.546875 34.70703125 -29.546875 34.70703125 -25.75 34.8125 C-24.48671875 34.83957031 -23.2234375 34.86664063 -21.921875 34.89453125 C-20.95765625 34.92933594 -19.9934375 34.96414063 -19 35 C-19.01160156 33.98421875 -19.02320313 32.9684375 -19.03515625 31.921875 C-19.07192731 27.61388296 -19.04290867 23.30783068 -19 19 C-18.99613281 17.84886719 -18.99226562 16.69773437 -18.98828125 15.51171875 C-18.76311543 9.40118436 -17.92366464 5.70340917 -13.66796875 1.20703125 C-9.69153961 -1.6705252 -4.52616213 -1.60143539 0 0 Z " fill="#ffffff" transform="translate(641,252)"/>
<path d="M0 0 C2.77270108 2.20684371 4.42745556 3.85491112 6 7 C6.10138998 8.67149495 6.13945054 10.34699601 6.14717102 12.02154541 C6.15432632 13.08422134 6.16148163 14.14689728 6.16885376 15.24177551 C6.17288712 16.99816597 6.17288712 16.99816597 6.17700195 18.79003906 C6.18357315 20.01939682 6.19014435 21.24875458 6.19691467 22.5153656 C6.2166855 26.59878784 6.22831879 30.68217076 6.23828125 34.765625 C6.24232874 36.17149627 6.24644566 37.57736735 6.25063133 38.98323822 C6.26968591 45.58909597 6.28391549 52.19494254 6.2922433 58.8008225 C6.30201249 66.42414183 6.32832222 74.04717056 6.36874419 81.67038751 C6.39891867 87.56346896 6.41371349 93.45646719 6.41702431 99.3496244 C6.41937364 102.86883669 6.42831788 106.38773862 6.45348549 109.90686798 C6.48112689 113.83546717 6.47693095 117.76368515 6.4699707 121.69238281 C6.48278076 122.85521286 6.49559082 124.01804291 6.50878906 125.21611023 C6.4685818 131.43470754 6.27921795 135.32887969 2 140 C-2.47309792 142.98206528 -6.75722995 142.47661546 -12 142 C-15.77216229 140.66402585 -16.65882297 139.61206391 -18.60073853 136.12831116 C-20.72758004 130.91528603 -20.41838825 125.55808647 -20.38818359 120.00952148 C-20.39344055 118.81844788 -20.39869751 117.62737427 -20.40411377 116.40020752 C-20.41501875 113.15019774 -20.41251437 109.90055738 -20.40297651 106.65055346 C-20.39535027 103.24074738 -20.40243356 99.83096495 -20.40713501 96.42115784 C-20.41258323 90.69747525 -20.4054248 84.97390904 -20.39111328 79.25024414 C-20.37478066 72.64214557 -20.38008331 66.03432463 -20.3965925 59.42623276 C-20.41022477 53.74109511 -20.41211879 48.05604082 -20.40427649 42.37089211 C-20.3996105 38.98038914 -20.39894552 35.59001651 -20.40888596 32.19952202 C-20.41650435 28.41985164 -20.40489006 24.64071464 -20.38818359 20.86108398 C-20.39425629 19.74351212 -20.40032898 18.62594025 -20.40658569 17.47450256 C-20.36106855 11.91593807 -20.21456665 7.76332308 -17 3 C-11.85185063 -1.66551036 -6.49784522 -1.54414504 0 0 Z " fill="#ffffff" transform="translate(943,245)"/>
<path d="M0 0 C3.74702299 1.59447787 5.893247 3.52385756 8 7 C9.28556372 10.75665145 9.15490254 14.57961856 9.16113281 18.50317383 C9.16609772 19.25329239 9.17106262 20.00341095 9.17617798 20.77626038 C9.19076008 23.2531934 9.19759511 25.73006238 9.203125 28.20703125 C9.20887984 29.93332419 9.21463753 31.65961712 9.22039795 33.38591003 C9.23089679 37.00475359 9.23674672 40.623575 9.24023438 44.24243164 C9.24571579 48.86925599 9.26974094 53.49578559 9.29820633 58.12251759 C9.3168719 61.68882592 9.3220404 65.25506381 9.32357025 68.82141685 C9.32658862 70.52658384 9.33458951 72.23174984 9.34775543 73.93686867 C9.36489779 76.32768518 9.362916 78.71778877 9.35644531 81.10864258 C9.3656601 81.80654907 9.37487488 82.50445557 9.3843689 83.22351074 C9.33359645 89.241882 7.83934997 93.75829223 4 98.4375 C-0.5968889 100.83171297 -4.93020666 100.88331685 -10 100 C-13.16993851 98.33193527 -15.37482717 96.25034567 -17 93 C-17.11918735 90.31652396 -17.17834991 87.65819823 -17.19287109 84.97363281 C-17.20104858 84.14417145 -17.20922607 83.31471008 -17.21765137 82.46011353 C-17.24251744 79.7077914 -17.25902533 76.95552092 -17.2734375 74.203125 C-17.27876118 73.26364769 -17.28408485 72.32417038 -17.28956985 71.35622406 C-17.31630796 66.38267329 -17.33567989 61.40914767 -17.35009766 56.43554688 C-17.36673833 51.29946506 -17.4115093 46.1640258 -17.4624691 41.0281868 C-17.49613639 37.07846342 -17.50767458 33.12889257 -17.51332474 29.179039 C-17.52003969 27.28600917 -17.53526813 25.39298945 -17.55921555 23.50009918 C-17.59085651 20.84751676 -17.59090566 18.19666712 -17.58349609 15.54394531 C-17.59990143 14.76449554 -17.61630676 13.98504578 -17.63320923 13.18197632 C-17.58719057 9.14921539 -17.16282725 6.71456604 -14.58853149 3.52850342 C-10.11002203 -0.84614936 -6.0355509 -0.5331086 0 0 Z " fill="#ffffff" transform="translate(703,287)"/>
<path d="M0 0 C3.10123466 2.09153035 4.83687128 3.53831073 6.6875 6.8125 C7.37946379 11.0886807 7.14163022 14.65194498 5.5625 18.6875 C2.50372239 22.15411462 -0.28799484 23.56210871 -4.90234375 24.1328125 C-11.25023751 24.3940427 -15.29419332 23.78532612 -20.3125 19.8125 C-22.73953749 16.39947854 -23.3125 14.50024957 -23.3125 10.3125 C-21.87467937 5.28012781 -19.6329565 2.23055675 -15.0625 -0.5625 C-9.78367892 -1.76223206 -5.1207572 -1.83574315 0 0 Z " fill="#ffffff" transform="translate(706.3125,244.1875)"/>
</svg>
